:FULLY-SPECIFIED
:FORCE-ALL-JOINTS-BE-3DOF
:DEGREES
781
root 1.60099 16.3291 18.6826 -16.0023 77.6698 -22.5495
lfemur 0 0 0
ltibia 0 0 0
lfoot 0 0 0
ltoes 0 0 0
rfemur 0 0 0
rtibia 0 0 0
rfoot 0 0 0
rtoes -22.8639 0 0
lowerback 0 0 0
upperback 0 0 0
thorax 0 0 0
lowerneck 0 0 0
upperneck 0 0 0
head 0 0 0
lclavicle 0 0 0
lhumerus 0 0 0
lradius 70.1971 -0 0
lwrist 0 0 0
lhand 0 0 0
lfingers 0 0 0
lthumb 0 0 0
rclavicle 0 0 0
rhumerus -30.1966 48.1697 -111.843
rradius 79.3863 -0 0
rwrist 6.16029 0 0
rhand -22.9065 -20.7007 -0.00809975
rfingers 0 0 0
rthumb 3.53345 -50.6507 -0.00780311
782
root 1.57277 16.3496 18.7733 -11.6404 75.0264 -18.1964
lfemur 0 0 0
ltibia 0 0 0
lfoot 0 0 0
ltoes 0 0 0
rfemur 0 0 0
rtibia 0 0 0
rfoot 0 0 0
rtoes -22.6854 0 0
lowerback 0 0 0
upperback 0 0 0
thorax 0 0 0
lowerneck 0 0 0
upperneck 0 0 0
head 0 0 0
lclavicle 0 0 0
lhumerus 0 0 0
lradius 69.9581 -0 0
lwrist 0 0 0
lhand 0 0 0
lfingers 0 0 0
lthumb 0 0 0
rclavicle 0 0 0
rhumerus -30.4995 48.0092 -112.085
rradius 79.0172 -0 0
rwrist 6.02495 0 0
rhand -22.851 -21.1275 -0.0111653
rfingers 0 0 0
rthumb 3.58702 -51.0765 -0.0107564
783
root 1.54911 16.3706 18.8624 -8.3257 72.038 -14.8915
lfemur 0 0 0
ltibia 0 0 0
lfoot 0 0 0
ltoes 0 0 0
rfemur 0 0 0
rtibia 0 0 0
rfoot 0 0 0
rtoes -22.4883 0 0
lowerback 0 0 0
upperback 0 0 0
thorax 0 0 0
lowerneck 0 0 0
upperneck 0 0 0
head 0 0 0
lclavicle 0 0 0
lhumerus 0 0 0
lradius 69.6941 -0 0
lwrist 0 0 0
lhand 0 0 0
lfingers 0 0 0
lthumb 0 0 0
rclavicle 0 0 0
rhumerus -30.8317 47.831 -112.349
rradius 78.6096 -0 0
rwrist 5.87545 0 0
rhand -22.7897 -21.5989 -0.0140711
rfingers 0 0 0
rthumb 3.6462 -51.5468 -0.0135557
784
root 1.52972 16.3917 18.95 -5.79942 68.7731 -12.3759
lfemur 0 0 0
ltibia 0 0 0
lfoot 0 0 0
ltoes 0 0 0
rfemur 0 0 0
rtibia 0 0 0
rfoot 0 0 0
rtoes -22.276 0 0
lowerback 0 0 0
upperback 0 0 0
thorax 0 0 0
lowerneck 0 0 0
upperneck 0 0 0
head 0 0 0
lclavicle 0 0 0
lhumerus 0 0 0
lradius 69.4097 -0 0
lwrist 0 0 0
lhand 0 0 0
lfingers 0 0 0
lthumb 0 0 0
rclavicle 0 0 0
rhumerus -31.1869 47.638 -112.631
rradius 78.1706 -0 0
rwrist 5.71446 0 0
rhand -22.7237 -22.1066 -0.0166363
rfingers 0 0 0
rthumb 3.70997 -52.0533 -0.016027
785
root 1.51431 16.413 19.0368 -3.8532 65.2969 -10.441
lfemur 0 0 0
ltibia 0 0 0
lfoot 0 0 0
ltoes 0 0 0
rfemur 0 0 0
rtibia 0 0 0
rfoot 0 0 0
rtoes -22.052 0 0
lowerback 0 0 0
upperback 0 0 0
thorax 0 0 0
lowerneck 0 0 0
upperneck 0 0 0
head 0 0 0
lclavicle 0 0 0
lhumerus 0 0 0
lradius 69.1097 -0 0
lwrist 0 0 0
lhand 0 0 0
lfingers 0 0 0
lthumb 0 0 0
rclavicle 0 0 0
rhumerus -31.5586 47.4331 -112.925
rradius 77.7075 -0 0
rwrist 5.54462 0 0
rhand -22.654 -22.6422 -0.0187081
rfingers 0 0 0
rthumb 3.77726 -52.5876 -0.0180229
786
root 1.5026 16.4343 19.1229 -2.33347 61.6723 -8.93323
lfemur 0 0 0
ltibia 0 0 0
lfoot 0 0 0
ltoes 0 0 0
rfemur 0 0 0
rtibia 0 0 0
rfoot 0 0 0
rtoes -21.8199 0 0
lowerback 0 0 0
upperback 0 0 0
thorax 0 0 0
lowerneck 0 0 0
upperneck 0 0 0
head 0 0 0
lclavicle 0 0 0
lhumerus 0 0 0
lradius 68.7988 -0 0
lwrist 0 0 0
lhand 0 0 0
lfingers 0 0 0
lthumb 0 0 0
rclavicle 0 0 0
rhumerus -31.9407 47.2193 -113.227
rradius 77.2275 -0 0
rwrist 5.36858 0 0
rhand -22.5817 -23.1973 -0.0201679
rfingers 0 0 0
rthumb 3.84701 -53.1415 -0.0194292
787
root 1.4943 16.4554 19.209 -1.13044 57.9596 -7.74257
lfemur 0 0 0
ltibia 0 0 0
lfoot 0 0 0
ltoes 0 0 0
rfemur 0 0 0
rtibia 0 0 0
rfoot 0 0 0
rtoes -21.5831 0 0
lowerback 0 0 0
upperback 0 0 0
thorax 0 0 0
lowerneck 0 0 0
upperneck 0 0 0
head 0 0 0
lclavicle 0 0 0
lhumerus 0 0 0
lradius 68.4817 -0 0
lwrist 0 0 0
lhand 0 0 0
lfingers 0 0 0
lthumb 0 0 0
rclavicle 0 0 0
rhumerus -32.3272 46.9999 -113.531
rradius 76.7379 -0 0
rwrist 5.18901 0 0
rhand -22.508 -23.7636 -0.0209358
rfingers 0 0 0
rthumb 3.91819 -53.7064 -0.0201691
788
root 1.48912 16.4762 19.2954 -0.166139 54.2179 -6.79092
lfemur 0 0 0
ltibia 0 0 0
lfoot 0 0 0
ltoes 0 0 0
rfemur 0 0 0
rtibia 0 0 0
rfoot 0 0 0
rtoes -21.3452 0 0
lowerback 0 0 0
upperback 0 0 0
thorax 0 0 0
lowerneck 0 0 0
upperneck 0 0 0
head 0 0 0
lclavicle 0 0 0
lhumerus 0 0 0
lradius 68.1629 -0 0
lwrist 0 0 0
lhand 0 0 0
lfingers 0 0 0
lthumb 0 0 0
rclavicle 0 0 0
rhumerus -32.7123 46.778 -113.833
rradius 76.2458 -0 0
rwrist 5.00855 0 0
rhand -22.434 -24.3327 -0.0209737
rfingers 0 0 0
rthumb 3.98971 -54.2741 -0.0202055
789
root 1.48679 16.4965 19.3824 0.615062 50.5055 -6.02252
lfemur 0 0 0
ltibia 0 0 0
lfoot 0 0 0
ltoes 0 0 0
rfemur 0 0 0
rtibia 0 0 0
rfoot 0 0 0
rtoes -21.1095 0 0
lowerback 0 0 0
upperback 0 0 0
thorax 0 0 0
lowerneck 0 0 0
upperneck 0 0 0
head 0 0 0
lclavicle 0 0 0
lhumerus 0 0 0
lradius 67.8473 -0 0
lwrist 0 0 0
lhand 0 0 0
lfingers 0 0 0
lthumb 0 0 0
rclavicle 0 0 0
rhumerus -33.0904 46.5569 -114.13
rradius 75.7586 -0 0
rwrist 4.82987 0 0
rhand -22.3606 -24.8962 -0.0202863
rfingers 0 0 0
rthumb 4.06053 -54.8363 -0.0195433
